<svg width="16" height="16" viewBox="0 0 16 16" fill="none" xmlns="http://www.w3.org/2000/svg">
<path d="M7.81518 12.9889C7.81518 12.9889 2.146 9.81413 2.146 5.95909C2.146 5.27759 2.38211 4.61714 2.81418 4.0901C3.24624 3.56307 3.84756 3.20201 4.51582 3.06836C5.18409 2.93471 5.87802 3.03672 6.47955 3.35703C7.08109 3.67734 7.55306 4.19617 7.81518 4.82525V4.82525C8.07729 4.19617 8.54927 3.67734 9.1508 3.35703C9.75233 3.03672 10.4463 2.93471 11.1145 3.06836C11.7828 3.20201 12.3841 3.56307 12.8162 4.0901C13.2482 4.61714 13.4844 5.27759 13.4844 5.95909C13.4844 9.81413 7.81518 12.9889 7.81518 12.9889Z" stroke="#4A60A1" stroke-width="0.936687" stroke-linecap="round" stroke-linejoin="round"/>
</svg>
